<svg width="28" height="28" viewBox="0 0 28 28" fill="none" xmlns="http://www.w3.org/2000/svg">
<path fill-rule="evenodd" clip-rule="evenodd" d="M8.17031 0.0825C9.60779 0.015 10.0661 0 13.7278 0C17.3895 0 17.8479 0.01625 19.2841 0.0825C20.7204 0.14875 21.7008 0.3825 22.5586 0.72125C23.4569 1.0675 24.2718 1.60875 24.9458 2.30875C25.6321 2.995 26.1615 3.825 26.4997 4.7425C26.833 5.6175 27.061 6.6175 27.1272 8.08C27.1933 9.54875 27.208 10.0162 27.208 13.75C27.208 17.485 27.1921 17.9525 27.1272 19.4188C27.0622 20.8813 26.833 21.8813 26.4997 22.7563C26.1615 23.6739 25.6312 24.5052 24.9458 25.1925C24.2718 25.8925 23.4569 26.4325 22.5586 26.7775C21.7008 27.1175 20.7204 27.35 19.2866 27.4175C17.8479 27.485 17.3895 27.5 13.7278 27.5C10.0661 27.5 9.60779 27.4837 8.17031 27.4175C6.7365 27.3512 5.75612 27.1175 4.89829 26.7775C3.9987 26.4325 3.18363 25.8916 2.50984 25.1925C1.82404 24.5058 1.29333 23.6749 0.954718 22.7575C0.622615 21.8825 0.394676 20.8825 0.328501 19.42C0.262325 17.9513 0.24762 17.4837 0.24762 13.75C0.24762 10.015 0.263551 9.5475 0.328501 8.0825C0.393451 6.6175 0.622615 5.6175 0.954718 4.7425C1.29383 3.8251 1.82495 2.99414 2.51107 2.3075C3.1839 1.60813 3.99815 1.0668 4.89707 0.72125C5.7549 0.3825 6.73528 0.15 8.16908 0.0825H8.17031ZM19.1751 2.5575C17.7535 2.49125 17.327 2.4775 13.7278 2.4775C10.1286 2.4775 9.70215 2.49125 8.2806 2.5575C6.96567 2.61875 6.25244 2.8425 5.77696 3.03125C5.14829 3.28125 4.69854 3.5775 4.22673 4.05875C3.77949 4.50256 3.4353 5.04285 3.21939 5.64C3.03435 6.125 2.81499 6.8525 2.75494 8.19375C2.68999 9.64375 2.67651 10.0787 2.67651 13.75C2.67651 17.4212 2.68999 17.8562 2.75494 19.3062C2.81499 20.6475 3.03435 21.375 3.21939 21.86C3.43508 22.4563 3.77943 22.9975 4.22673 23.4412C4.66178 23.8975 5.19241 24.2488 5.77696 24.4688C6.25244 24.6575 6.96567 24.8813 8.2806 24.9425C9.70215 25.0088 10.1274 25.0225 13.7278 25.0225C17.3283 25.0225 17.7535 25.0088 19.1751 24.9425C20.49 24.8813 21.2032 24.6575 21.6787 24.4688C22.3074 24.2188 22.7571 23.9225 23.2289 23.4412C23.6762 22.9975 24.0206 22.4563 24.2363 21.86C24.4213 21.375 24.6407 20.6475 24.7007 19.3062C24.7657 17.8562 24.7792 17.4212 24.7792 13.75C24.7792 10.0787 24.7657 9.64375 24.7007 8.19375C24.6407 6.8525 24.4213 6.125 24.2363 5.64C23.9912 4.99875 23.7007 4.54 23.2289 4.05875C22.7938 3.60259 22.2641 3.25151 21.6787 3.03125C21.2032 2.8425 20.49 2.61875 19.1751 2.5575ZM12.006 17.9888C12.9676 18.397 14.0383 18.4521 15.0353 18.1447C16.0323 17.8372 16.8937 17.1861 17.4724 16.3028C18.0511 15.4195 18.3112 14.3586 18.2082 13.3014C18.1053 12.2442 17.6457 11.2562 16.9079 10.5062C16.4376 10.0268 15.869 9.65977 15.2429 9.43143C14.6169 9.2031 13.9489 9.1192 13.2873 9.18577C12.6256 9.25234 11.9866 9.46772 11.4163 9.81641C10.8461 10.1651 10.3587 10.6384 9.98928 11.2023C9.61987 11.7662 9.37763 12.4066 9.27999 13.0775C9.18235 13.7483 9.23175 14.4329 9.42463 15.0819C9.6175 15.7309 9.94906 16.3283 10.3954 16.8309C10.8418 17.3335 11.3919 17.729 12.006 17.9888ZM8.82839 8.7525C9.47179 8.09622 10.2356 7.57563 11.0763 7.22045C11.9169 6.86527 12.8179 6.68247 13.7278 6.68247C14.6377 6.68247 15.5387 6.86527 16.3794 7.22045C17.22 7.57563 17.9839 8.09622 18.6273 8.7525C19.2707 9.40878 19.7811 10.1879 20.1293 11.0454C20.4775 11.9028 20.6567 12.8219 20.6567 13.75C20.6567 14.6781 20.4775 15.5972 20.1293 16.4546C19.7811 17.3121 19.2707 18.0912 18.6273 18.7475C17.3279 20.0729 15.5655 20.8175 13.7278 20.8175C11.8902 20.8175 10.1278 20.0729 8.82839 18.7475C7.52897 17.4221 6.79897 15.6244 6.79897 13.75C6.79897 11.8756 7.52897 10.0779 8.82839 8.7525ZM22.1934 7.735C22.3528 7.58159 22.4805 7.3971 22.5688 7.19247C22.6571 6.98783 22.7042 6.76721 22.7074 6.54366C22.7106 6.32011 22.6698 6.09818 22.5874 5.89101C22.505 5.68384 22.3827 5.49564 22.2277 5.33755C22.0727 5.17946 21.8882 5.0547 21.6851 4.97065C21.482 4.8866 21.2644 4.84497 21.0452 4.84823C20.8261 4.85149 20.6098 4.89957 20.4091 4.98962C20.2085 5.07967 20.0277 5.20987 19.8773 5.3725C19.5847 5.68879 19.4246 6.1089 19.4308 6.54366C19.437 6.97842 19.6091 7.3936 19.9105 7.70105C20.212 8.00851 20.619 8.18404 21.0452 8.19037C21.4714 8.19671 21.8833 8.03336 22.1934 7.735Z" fill="white"/>
</svg>
