<svg width="57" height="47" viewBox="0 0 57 47" fill="none" xmlns="http://www.w3.org/2000/svg">
<path d="M24.5417 7.18056C24.5417 5.27615 23.6242 3.44975 21.9911 2.10314C20.3579 0.756521 18.1429 0 15.8333 0C13.5237 0 11.3087 0.756521 9.67561 2.10314C8.04248 3.44975 7.125 5.27615 7.125 7.18056C7.125 9.08496 8.04248 10.9114 9.67561 12.258C11.3087 13.6046 13.5237 14.3611 15.8333 14.3611C18.1429 14.3611 20.3579 13.6046 21.9911 12.258C23.6242 10.9114 24.5417 9.08496 24.5417 7.18056ZM10.2917 7.18056C10.2917 6.58049 10.435 5.9863 10.7135 5.4319C10.992 4.87751 11.4002 4.37378 11.9148 3.94947C12.4294 3.52516 13.0403 3.18858 13.7126 2.95894C14.385 2.7293 15.1056 2.61111 15.8333 2.61111C16.5611 2.61111 17.2817 2.7293 17.954 2.95894C18.6264 3.18858 19.2373 3.52516 19.7519 3.94947C20.2665 4.37378 20.6747 4.87751 20.9532 5.4319C21.2317 5.9863 21.375 6.58049 21.375 7.18056C21.375 8.39245 20.7911 9.5547 19.7519 10.4116C18.7126 11.2686 17.3031 11.75 15.8333 11.75C14.3636 11.75 12.954 11.2686 11.9148 10.4116C10.8755 9.5547 10.2917 8.39245 10.2917 7.18056ZM4.75 16.9722H17.9962C17.4768 17.7817 17.0905 18.659 16.8625 19.5833H4.75C4.33007 19.5833 3.92735 19.7209 3.63041 19.9657C3.33348 20.2106 3.16667 20.5426 3.16667 20.8889V22.1944C3.16667 25.4844 6.64683 29.0199 12.9707 29.845C11.951 30.4194 11.1023 31.1845 10.4975 32.0749C3.81583 30.5839 0 26.3383 0 22.1944V20.8889C0 19.8501 0.500445 18.8539 1.39124 18.1194C2.28204 17.3849 3.49022 16.9722 4.75 16.9722ZM21.7835 16.9722C23.3795 15.3794 25.7957 14.3611 28.5 14.3611C30.3964 14.3584 32.2418 14.8673 33.7547 15.8102C35.2676 16.7531 36.3648 18.0782 36.879 19.5833C37.3373 20.9267 37.3115 22.3511 36.8047 23.6826C36.2978 25.0141 35.3319 26.1952 34.0248 27.0817C32.7176 27.9682 31.1258 28.5218 29.4436 28.6749C27.7613 28.8281 26.0614 28.5741 24.5512 27.9441C23.3884 27.4561 22.3735 26.759 21.5814 25.9042C20.7893 25.0493 20.2403 24.0586 19.9749 23.0053C19.7095 21.952 19.7345 20.863 20.0481 19.8188C20.3617 18.7745 20.9559 17.8017 21.7867 16.9722H21.7835ZM23.4935 19.5833C23.1816 20.1258 23.0024 20.7136 22.966 21.3132C22.9296 21.9128 23.0368 22.5124 23.2814 23.0778C23.5261 23.6432 23.9034 24.1634 24.3918 24.6086C24.8803 25.0538 25.4703 25.4153 26.1282 25.6724C26.786 25.9296 27.4989 26.0774 28.2261 26.1074C28.9532 26.1374 29.6804 26.049 30.3662 25.8473C31.0519 25.6456 31.6827 25.3345 32.2226 24.9317C32.7625 24.529 33.2009 24.0425 33.5128 23.5C34.1427 22.4041 34.2188 21.1468 33.7245 20.0046C33.2301 18.8624 32.2057 17.929 30.8766 17.4096C29.5475 16.8902 28.0227 16.8274 26.6375 17.2351C25.2523 17.6427 24.1202 18.4874 23.4903 19.5833H23.4935ZM46.5025 32.0749C45.8993 31.184 45.0525 30.4214 44.0293 29.8476C50.35 29.0199 53.8333 25.4818 53.8333 22.1944V20.8889C53.8333 20.5426 53.6665 20.2106 53.3696 19.9657C53.0727 19.7209 52.6699 19.5833 52.25 19.5833H40.1375C39.9138 18.6729 39.5331 17.7936 39.007 16.9722H52.25C53.5098 16.9722 54.718 17.3849 55.6088 18.1194C56.4996 18.8539 57 19.8501 57 20.8889V22.1944C57 26.3383 53.181 30.5813 46.5025 32.0749ZM42.7088 32.3021C41.8446 31.6764 40.7334 31.332 39.5833 31.3333H17.4167C16.7924 31.332 16.174 31.4323 15.5969 31.6287C15.0199 31.825 14.4956 32.1135 14.0542 32.4774C13.6128 32.8414 13.263 33.2737 13.0248 33.7495C12.7867 34.2253 12.665 34.7353 12.6667 35.25V36.5556C12.6667 41.7021 18.5567 47 28.5 47C38.4433 47 44.3333 41.7021 44.3333 36.5556V35.25C44.3333 34.075 43.7063 33.0201 42.7088 32.2994V32.3021ZM15.8333 35.25C15.8333 34.9037 16.0001 34.5717 16.2971 34.3268C16.594 34.082 16.9967 33.9444 17.4167 33.9444H39.5833C40.0033 33.9444 40.406 34.082 40.7029 34.3268C40.9999 34.5717 41.1667 34.9037 41.1667 35.25V36.5556C41.1667 40.3103 36.632 44.3889 28.5 44.3889C20.368 44.3889 15.8333 40.3103 15.8333 36.5556V35.25ZM41.1667 0C43.4763 0 45.6913 0.756521 47.3244 2.10314C48.9575 3.44975 49.875 5.27615 49.875 7.18056C49.875 9.08496 48.9575 10.9114 47.3244 12.258C45.6913 13.6046 43.4763 14.3611 41.1667 14.3611C38.8571 14.3611 36.6421 13.6046 35.0089 12.258C33.3758 10.9114 32.4583 9.08496 32.4583 7.18056C32.4583 5.27615 33.3758 3.44975 35.0089 2.10314C36.6421 0.756521 38.8571 0 41.1667 0ZM41.1667 2.61111C39.6969 2.61111 38.2874 3.09253 37.2481 3.94947C36.2089 4.80641 35.625 5.96866 35.625 7.18056C35.625 8.39245 36.2089 9.5547 37.2481 10.4116C38.2874 11.2686 39.6969 11.75 41.1667 11.75C42.6364 11.75 44.046 11.2686 45.0852 10.4116C46.1245 9.5547 46.7083 8.39245 46.7083 7.18056C46.7083 5.96866 46.1245 4.80641 45.0852 3.94947C44.046 3.09253 42.6364 2.61111 41.1667 2.61111Z" fill="white"/>
</svg>
