<svg width="33" height="27" viewBox="0 0 33 27" fill="none" xmlns="http://www.w3.org/2000/svg">
<path d="M32.151 3.13673C30.9791 3.65236 29.7039 4.02345 28.3903 4.16799C29.7541 3.34156 30.7754 2.03595 31.2625 0.49611C29.9828 1.27263 28.5809 1.81714 27.1189 2.10548C26.5079 1.43918 25.7688 0.908375 24.9479 0.546139C24.127 0.183903 23.2417 -0.00199916 22.3472 1.62125e-05C18.7282 1.62125e-05 15.8177 2.9922 15.8177 6.66408C15.8177 7.1797 15.879 7.69533 15.9786 8.19142C10.5597 7.90236 5.72672 5.26173 2.51368 1.21877C1.92823 2.23875 1.62144 3.40012 1.62521 4.58205C1.62521 6.89455 2.77792 8.93361 4.53571 10.1328C3.49982 10.0912 2.48819 9.80079 1.58309 9.28517V9.3672C1.58309 12.6055 3.82724 15.2891 6.81816 15.9063C6.25658 16.0551 5.67888 16.1312 5.09866 16.1328C4.67358 16.1328 4.27147 16.0899 3.86553 16.0313C4.69273 18.6719 7.10155 20.5899 9.96992 20.6524C7.72577 22.4453 4.91484 23.5 1.86265 23.5C1.31502 23.5 0.809507 23.4805 0.284851 23.418C3.18003 25.3125 6.61519 26.4063 10.3146 26.4063C22.3242 26.4063 28.8958 16.2578 28.8958 7.44924C28.8958 7.16017 28.8958 6.87111 28.8767 6.58205C30.1481 5.63283 31.2625 4.45705 32.151 3.13673Z" fill="white"/>
</svg>
