<svg width="30" height="30" viewBox="0 0 30 30" fill="none" xmlns="http://www.w3.org/2000/svg">
<path d="M25.2315 4.36134C23.8832 2.97324 22.2774 1.87274 20.5079 1.12398C18.7384 0.375216 16.8404 -0.00683301 14.9247 9.24947e-05C6.89723 9.24947e-05 0.35504 6.67134 0.347687 14.8613C0.347687 17.4845 1.02047 20.0363 2.29068 22.2957L0.230042 30.0001L7.95788 27.9338C10.0957 29.1206 12.4908 29.7426 14.9247 29.7432H14.932C22.9614 29.7432 29.5017 23.072 29.5091 14.8745C29.5109 12.9208 29.1337 10.9861 28.3993 9.18174C27.6648 7.37741 26.5876 5.73915 25.2297 4.36134H25.2315ZM14.9247 27.227C12.7538 27.2277 10.6227 26.6318 8.75566 25.502L8.31449 25.232L3.72999 26.4582L4.95424 21.8963L4.66748 21.4257C3.45391 19.4576 2.81208 17.1789 2.8164 14.8538C2.8164 8.05509 8.25199 2.50884 14.932 2.50884C16.5235 2.50593 18.0997 2.82436 19.5699 3.44576C21.0401 4.06717 22.3751 4.97927 23.4981 6.12947C24.625 7.27518 25.5183 8.63714 26.1266 10.1368C26.7349 11.6364 27.0461 13.2441 27.0422 14.867C27.0348 21.6901 21.5992 27.227 14.9247 27.227ZM21.5698 17.9757C21.2077 17.7901 19.4191 16.892 19.0827 16.7645C18.7482 16.6426 18.5037 16.5788 18.2647 16.9501C18.0202 17.3195 17.3217 18.1613 17.1122 18.4032C16.9026 18.6526 16.6857 18.6807 16.3217 18.497C15.9596 18.3095 14.785 17.9195 13.3953 16.6501C12.3108 15.6657 11.5847 14.447 11.3678 14.0776C11.1582 13.7063 11.3475 13.5076 11.5295 13.322C11.6894 13.157 11.8916 12.887 12.0736 12.6732C12.2575 12.4595 12.3181 12.302 12.4376 12.0545C12.5571 11.8032 12.5001 11.5895 12.41 11.4038C12.3181 11.2182 11.592 9.38634 11.285 8.64759C10.9909 7.91822 10.6913 8.01947 10.467 8.01009C10.2575 7.99697 10.013 7.99697 9.76852 7.99697C9.58389 8.00165 9.40221 8.0452 9.23487 8.1249C9.06753 8.2046 8.91815 8.31872 8.7961 8.46009C8.46155 8.83134 7.5259 9.72947 7.5259 11.5613C7.5259 13.3932 8.83103 15.1538 9.01485 15.4032C9.19499 15.6526 11.5773 19.4007 15.2335 21.0132C16.0975 21.3976 16.7776 21.6245 17.3089 21.797C18.182 22.082 18.9706 22.0388 19.5993 21.947C20.2978 21.8382 21.7518 21.047 22.0588 20.1788C22.3603 19.3088 22.3603 18.5663 22.2683 18.4107C22.1783 18.2532 21.9338 18.1613 21.5698 17.9757Z" fill="white"/>
</svg>
