<svg width="51" height="44" viewBox="0 0 51 44" fill="none" xmlns="http://www.w3.org/2000/svg">
<path d="M25.5 0C20.4566 0 15.5264 1.29028 11.333 3.70767C7.13951 6.12506 3.87112 9.56099 1.94108 13.581C0.0110487 17.6009 -0.493936 22.0244 0.489987 26.292C1.47391 30.5596 3.90255 34.4796 7.46879 37.5563C11.035 40.6331 15.5787 42.7284 20.5252 43.5773C25.4717 44.4261 30.5989 43.9905 35.2584 42.3253C39.9179 40.6602 43.9005 37.8404 46.7025 34.2225C49.5045 30.6047 51 26.3512 51 22C50.9923 16.1673 48.3032 10.5754 43.5227 6.451C38.7422 2.32664 32.2607 0.00665456 25.5 0ZM4.91787 28.2857H7.28572L14.8938 32.3714C15.2954 32.587 15.7785 32.6593 16.2408 32.5731C16.7031 32.4868 17.1084 32.2488 17.371 31.9094L19.207 29.5334C19.4401 29.2313 19.5449 28.8688 19.5034 28.5076C19.4619 28.1463 19.2767 27.8086 18.9793 27.5519L14.5714 23.7474L16.3929 18.8571H26.0883C26.4521 18.8571 26.8075 18.763 27.1087 18.5871C27.41 18.4113 27.6433 18.1616 27.7786 17.8703L30.6601 11.6553C30.7558 11.4492 30.7997 11.2279 30.789 11.0061C30.7783 10.7842 30.7133 10.5669 30.5982 10.3683L26.4344 3.18371C30.1895 3.31327 33.842 4.27841 37.0372 5.9854C40.2323 7.6924 42.8616 10.0832 44.6695 12.9257C46.4774 15.7682 47.4026 18.9658 47.3552 22.2078C47.3079 25.4499 46.2895 28.6263 44.3991 31.4286H38.25C37.7669 31.4286 37.3036 31.5941 36.9621 31.8888C36.6205 32.1835 36.4286 32.5832 36.4286 33V38.3067C33.6556 39.6994 30.5602 40.5462 27.3637 40.7868C24.1672 41.0273 20.9486 40.6556 17.938 39.6981C14.9274 38.7407 12.1991 37.2212 9.94833 35.2484C7.69754 33.2755 5.97978 30.8979 4.91787 28.2857Z" fill="white"/>
</svg>
